# xmcd
# 
# Track frame offsets:
#     150
#     16547
#     32657
#     48990
# 
# Disc length: 863
# 
# Revision: 3
# Processed by: cddbd v1.5.2PL0 Copyright (c) Steve Scherf et al.
# Submitted via: BonkEnc v1.0.8
# 
DISCID=20035d04
DTITLE=Gleam Joel und Timani - underground
DYEAR=2009
DGENRE=Musical
TTITLE0=Better Days
TTITLE1=Underground
TTITLE2=Better Days Karaoke
TTITLE3=Underground Karaoke
EXTD=YEAR: 1999
EXTT0=
EXTT1=
EXTT2=
EXTT3=
PLAYORDER=
